<svg width="16" height="24" viewBox="0 0 16 24" fill="none" xmlns="http://www.w3.org/2000/svg">
<g clip-path="url(#clip0)">
<path d="M6.26728 24V20.4195H2.17511V17.3353H6.26728L6.26728 15.1019C5.06298 14.8656 3.99386 14.3929 3.05991 13.6839C2.12596 12.9513 1.37634 12.065 0.81106 11.0251C0.270353 9.9616 0 8.81536 0 7.58641C0 6.21566 0.368663 4.96307 1.10599 3.82866C1.84332 2.67061 2.81413 1.74889 4.01843 1.06351C5.22273 0.354505 6.54992 0 8 0C9.45008 0 10.7773 0.354505 11.9816 1.06351C13.2104 1.74889 14.1813 2.67061 14.894 3.82866C15.6313 4.96307 16 6.21566 16 7.58641C16 8.79173 15.7296 9.92615 15.1889 10.9897C14.6482 12.0295 13.8986 12.9158 12.9401 13.6484C12.0061 14.3811 10.937 14.8656 9.73272 15.1019V17.3353H13.5668V20.4195H9.73272V24H6.26728ZM8 12.1241C8.86022 12.1241 9.6467 11.9232 10.3594 11.5214C11.0722 11.096 11.6375 10.5406 12.0553 9.85524C12.4977 9.16987 12.7189 8.41359 12.7189 7.58641C12.7189 6.8065 12.4977 6.08567 12.0553 5.42393C11.6375 4.73855 11.0722 4.19498 10.3594 3.79321C9.6467 3.39143 8.86022 3.19055 8 3.19055C7.13978 3.19055 6.3533 3.39143 5.64055 3.79321C4.95238 4.19498 4.3871 4.73855 3.9447 5.42393C3.52688 6.08567 3.31797 6.8065 3.31797 7.58641C3.31797 8.41359 3.52688 9.16987 3.9447 9.85524C4.3871 10.5406 4.96467 11.096 5.67742 11.5214C6.39017 11.9232 7.16436 12.1241 8 12.1241Z" fill="white"/>
</g>
<defs>
<clipPath id="clip0">
<rect width="16" height="24" fill="white"/>
</clipPath>
</defs>
</svg>
