<svg width="16" height="24" viewBox="0 0 16 24" fill="none" xmlns="http://www.w3.org/2000/svg">
<g clip-path="url(#clip0)">
<path d="M11.316 22.7956C10.0176 23.3792 8.68466 23.5916 7.31704 23.4326C5.93944 23.2515 4.67612 22.7656 3.52708 21.9748C2.40004 21.1742 1.53721 20.108 0.938593 18.7763C0.349952 17.4668 0.13527 16.136 0.294546 14.7838C0.46585 13.3995 0.945979 12.1432 1.73493 11.0148C2.52389 9.88646 3.56754 9.03047 4.86588 8.44683C6.20824 7.84341 7.6112 7.63961 9.07477 7.83545L9.98043 4.90713L6.84264 4.91783L13.3296 -2.36555e-05L15.9043 7.11711L13.2519 5.9177L12.3071 9.02371C13.6081 9.79951 14.5829 10.9087 15.2314 12.3514C15.83 13.683 16.0437 15.041 15.8724 16.4253C15.7231 17.7997 15.2479 19.0671 14.4469 20.2276C13.658 21.3559 12.6143 22.2119 11.316 22.7956ZM9.96909 19.7993C10.7393 19.4531 11.3587 18.9479 11.8272 18.2837C12.2958 17.6195 12.5725 16.8815 12.6572 16.0697C12.764 15.248 12.6428 14.4488 12.2936 13.672C11.9544 12.9174 11.447 12.3184 10.7716 11.875C10.1181 11.4217 9.38752 11.1498 8.57974 11.0594C7.77197 10.969 6.98297 11.0969 6.21277 11.4431C5.44257 11.7893 4.82318 12.2945 4.35462 12.9587C3.90807 13.613 3.62641 14.3399 3.50966 15.1394C3.41492 15.929 3.53716 16.7011 3.87637 17.4557C4.22557 18.2325 4.73188 18.8587 5.39531 19.3341C6.08074 19.7997 6.82735 20.0777 7.63513 20.1682C8.44291 20.2586 9.2209 20.1357 9.96909 19.7993Z" fill="white"/>
</g>
<defs>
<clipPath id="clip0">
<rect width="16" height="24" fill="white"/>
</clipPath>
</defs>
</svg>
