<svg width="18" height="18" viewBox="0 0 18 18" fill="none" xmlns="http://www.w3.org/2000/svg">
<path fill-rule="evenodd" clip-rule="evenodd" d="M-3.05597e-05 9C-3.05364e-05 8.44772 0.447685 8 0.999969 8L17 8C17.5523 8 18 8.44772 18 9C18 9.55229 17.5523 10 17 10L0.999969 10C0.447685 10 -3.0583e-05 9.55228 -3.05597e-05 9Z" fill="white"/>
<path fill-rule="evenodd" clip-rule="evenodd" d="M9 -6.0993e-05C9.55228 -6.09697e-05 10 0.447654 10 0.999939L10 17C10 17.5523 9.55228 18 9 18C8.44771 18 8 17.5523 8 17L8 0.999939C8 0.447654 8.44772 -6.10163e-05 9 -6.0993e-05Z" fill="white"/>
</svg>
