<svg width="50" height="50" viewBox="0 0 50 50" fill="none" xmlns="http://www.w3.org/2000/svg">
<circle cx="25" cy="25" r="25" fill="white"/>
<path d="M22.1523 25.0664C21.5195 23.8711 20.7227 22.7344 19.7617 21.6562C18.8008 20.5781 17.875 19.9922 16.9844 19.8984H14.0312C13.375 19.8984 12.8242 19.6641 12.3789 19.1953C11.9102 18.75 11.6758 18.1992 11.6758 17.543C11.6758 16.8867 11.8984 16.3359 12.3438 15.8906C12.8125 15.4219 13.375 15.1875 14.0312 15.1875H16.9844V15.2227L17.3359 15.2227C19.0234 15.3164 20.7695 16.2656 22.5742 18.0703C23.4648 18.9844 24.2852 20.0156 25.0352 21.1641C25.7852 20.0156 26.6172 18.9844 27.5312 18.0703C29.3125 16.2656 31.0469 15.3164 32.7344 15.2227H33.0859V15.1875H36.0391C36.6953 15.1875 37.2461 15.4219 37.6914 15.8906C38.1602 16.3359 38.3945 16.8867 38.3945 17.543C38.3945 18.1992 38.1602 18.75 37.6914 19.1953C37.2461 19.6641 36.6953 19.8984 36.0391 19.8984H33.0859C32.1953 19.9922 31.2695 20.5781 30.3086 21.6562C29.3477 22.7344 28.5508 23.8711 27.918 25.0664C27.7773 25.3242 27.6367 25.5703 27.4961 25.8047C27.543 25.875 27.5898 25.9453 27.6367 26.0156C28.2695 27.2344 29.0664 28.3828 30.0273 29.4609C30.9883 30.5391 31.9141 31.1133 32.8047 31.1836H35.7578C36.4141 31.1836 36.9648 31.418 37.4102 31.8867C37.8789 32.332 38.1133 32.8828 38.1133 33.5391C38.1133 34.1953 37.8789 34.7578 37.4102 35.2266C36.9648 35.6719 36.4141 35.8945 35.7578 35.8945H32.4531C30.7656 35.8008 29.0313 34.8633 27.25 33.082C26.4531 32.2617 25.7148 31.3711 25.0352 30.4102C24.3555 31.3711 23.6172 32.2617 22.8203 33.082C21.0391 34.8633 19.3047 35.8008 17.6172 35.8945H14.3125C13.6563 35.8945 13.0938 35.6719 12.625 35.2266C12.1797 34.7578 11.957 34.1953 11.957 33.5391C11.957 32.8828 12.1914 32.332 12.6602 31.8867C13.1055 31.418 13.6563 31.1836 14.3125 31.1836H17.2656C18.1563 31.1133 19.082 30.5391 20.043 29.4609C21.0039 28.3828 21.8008 27.2344 22.4336 26.0156C22.4805 25.9453 22.5273 25.875 22.5742 25.8047C22.4336 25.5703 22.293 25.3242 22.1523 25.0664Z" fill="url(#paint0_linear)"/>
<defs>
<linearGradient id="paint0_linear" x1="16.5" y1="11" x2="34.5" y2="40.5" gradientUnits="userSpaceOnUse">
<stop offset="0.125672" stop-color="#35635B"/>
<stop offset="0.524267" stop-color="#1A5AA6"/>
<stop offset="0.839245" stop-color="#860DFF"/>
</linearGradient>
</defs>
</svg>
